<svg width="800" height="800" viewBox="0 0 800 800" xmlns="http://www.w3.org/2000/svg">
  <defs>
    <linearGradient id="leafGradient" x1="0%" y1="0%" x2="0%" y2="100%">
      <stop offset="0%" stop-color="#4CAF50"/>
      <stop offset="100%" stop-color="#2E7D32"/>
    </linearGradient>
  </defs>
  <rect width="800" height="800" fill="white" fill-opacity="0"/>
  <circle cx="400" cy="300" r="140" fill="#E8F5E9"/>
  <path d="M400 170 C360 220 340 260 340 300 C340 350 370 380 400 410 C430 380 460 350 460 300 C460 260 440 220 400 170 Z"
        fill="url(#leafGradient)"/>
  <path d="M400 210 C380 240 370 265 370 295 C370 325 385 345 400 360 C415 345 430 325 430 295 C430 265 420 240 400 210 Z"
        fill="#A5D6A7"/>
  <line x1="400" y1="180" x2="400" y2="400" stroke="#1B5E20" stroke-width="4" stroke-linecap="round"/>
  <text x="400" y="520" text-anchor="middle" font-family="Segoe UI, Arial, sans-serif" font-size="52" fill="#1B5E20" font-weight="700">
    Succulents
  </text>
  <text x="400" y="575" text-anchor="middle" font-family="Segoe UI, Arial, sans-serif" font-size="40" fill="#4CAF50" font-weight="600">
    For Functions
  </text>
</svg>
